<?xml version="1.0" encoding="UTF-8"?>
<svg id="Capa_2" data-name="Capa 2" xmlns="http://www.w3.org/2000/svg" viewBox="0 0 2360.09 353.6" >
  <defs>
    <style>
      .cls-1 {
        fill: #E38009;
      }
    </style>
  </defs>
  <g id="Logos">
    <path class="cls-1" d="M1183.54,353.6v-14.93c1.45,.71,2.95,1.4,4.51,2.07,11.67,5.02,22.2,7.09,29.8,7.98-3.64-4.31-6.8-8.27-9.55-11.93,0,0,0,0,0,0-1.56-2.36-3.07-4.75-4.55-7.16-1.71-2.79-3.38-5.61-4.92-8.49-.96-1.79-1.88-3.6-2.75-5.44-.08-.17-.15-.33-.23-.5h0c-.71-10.51,.8-17.01,3.22-21.11v-.02c3.45-1.36,8.03-2.3,13.74-5.05,.57-.27,1.15-.56,1.75-.88,14.24-7.47,22.51-20.02,27.4-30-2.33,.89-12.05,4.45-22.97,3.25h0c-4.15-.92-8.15-2.35-11.91-4.32-1.88-.98-3.71-2.1-5.46-3.36-1.76-1.26-3.45-2.66-5.06-4.2-.7-.67-1.45-1.42-2.21-2.25-.03-.02-.04-.03-.04-.06-1.54-2.34-2.6-5-2.48-7.89,.3-7.44,8.15-9.81,14.8-18.78,4.42-5.96,9.04-15.8,8.54-32.45-25.86,7.79-33.99,8.21-35.75,6.52,0-.02,0-.05,.02-.06,.4-.98,.98-1.92,1.61-2.82,.32-.45,.65-.9,.99-1.33,.34-.44,.68-.87,1.01-1.3,4.11-3.49,10.28-8.54,13.03-16.09,5.02-13.74-3.46-29.79-12.84-42.49-31.68,17.74-44.23,16.22-49.84,11.57-7.83-6.53,.12-17.59-9.9-39.96-2.59-5.75-10.13-22.58-25.06-31.81-.9-.56-1.02,.06-1.01,.98-1.28-.99-2.57-1.96-3.89-2.9-1.81-1.3-8.63-.18-8.48,2.75v.03c.5,7.08,.18,14.26-1.09,21.23-.38,2.07-.88,4.29-1.54,6.52-1.57,5.38-4.1,10.81-8.17,14.29,.24-.83,.47-1.65,.68-2.48,.94-3.75,1.59-7.56,1.97-11.42,1.75-18.22-2.48-37.29-9.33-53.84-1.15-2.78-7.8-.06-8.74,1.83-5.02,10.25-11.51,19.58-18.98,28.2-7,8.06-15.29,14.15-25.99,14.83-5.02-27.37-18.7-52.79-39.54-71.34-1.8-1.6-7.73-.06-8.45,2.27-2.98,9.56-7.76,18.54-14.61,25.9-9.83,10.61-23.21,16.04-37.58,15.8h-.21c-.14,0-.27-.01-.41-.01h-.74c-.11,0-.21,.01-.32,.01-15.14,.32-29.68-5.56-40.3-16.42-7.39-7.58-12.54-17.06-15.67-27.11-.88-2.81-7.26,.09-8.41,1.27-19.14,19.64-33.72,43.4-42.59,69.3-16.77-11.88-31.13-26.99-41.97-44.53-1.23-1.98-1.42-6.97-3.49-5.31-.47,.36-5.06,6.73-5.23,7.14-.14,.35-.29,.68-.42,1.03-.51,1.25-2.2,3.17-2.68,4.46-.03,.09-4.23,11.69-4.26,11.79-4.48,12.13-2.12,13.24-2.36,26.37-.14,6.56,.42,13.09,1.81,19.45-1.81-1.8-3.36-3.89-4.67-6.18-5.76-10.06-7.18-23.97-7.23-34.28-.02-2.6-6.97,.09-7.83,.71-11.83,8.47-23.61,19.15-29.66,31.82-.72,.93-1.21,1.7-1.4,2.25-7.14,20.58-.15,31.3-6.55,36.71-5.53,4.69-17.87,5.52-47.6-11.17-8.18,9.16-4.39,27.04-15.03,36.8-19.77,18.14-28.61,10.95-30.26,9.36,0-.02,0-.05,.02-.06,.4-.98,.98-1.92,1.61-2.82,.32-.45,.66-.9,.99-1.33,.34-.44,.68-.87,1.01-1.3t0,0c4.11-3.49,10.28-8.54,13.03-16.09,5.02-13.74-3.46-29.79-12.84-42.49-31.68,17.74-44.23,16.22-49.84,11.57-7.83-6.53,.12-17.59-9.9-39.96-2.59-5.75-10.13-22.58-25.05-31.81-.9-.56-1.02,.06-1.01,.98-1.28-.99-2.57-1.96-3.89-2.9-1.81-1.3-8.63-.18-8.48,2.75v.03c.5,7.08,.18,14.26-1.09,21.23-.38,2.07-.88,4.29-1.54,6.52-1.57,5.38-4.1,10.81-8.17,14.29,.24-.83,.47-1.65,.68-2.48,.94-3.75,1.59-7.56,1.97-11.42,1.75-18.22-2.48-37.29-9.33-53.84-1.15-2.78-7.8-.06-8.74,1.83-5.02,10.25-11.51,19.58-18.98,28.2-7,8.06-15.29,14.15-25.99,14.83-5.02-27.37-18.7-52.79-39.54-71.34-1.8-1.6-7.73-.06-8.45,2.27-2.98,9.56-7.76,18.54-14.61,25.9-9.83,10.61-23.21,16.04-37.57,15.8h-.21c-.14,0-.27-.02-.41-.02h-.74c-.11,0-.21,.02-.32,.02-15.14,.32-29.68-5.56-40.3-16.42-7.39-7.58-12.53-17.06-15.66-27.11-.88-2.81-7.26,.09-8.41,1.27-19.14,19.64-33.72,43.4-42.6,69.3-16.77-11.89-31.13-26.99-41.97-44.53-1.23-1.98-1.42-6.97-3.49-5.31-.47,.36-5.06,6.73-5.23,7.14-.14,.35-.29,.68-.42,1.03-.51,1.26-2.2,3.17-2.68,4.46-.03,.09-4.23,11.69-4.26,11.79-4.48,12.13-2.12,13.24-2.36,26.37-.14,6.56,.42,13.09,1.81,19.45-1.81-1.8-3.36-3.89-4.67-6.18-5.76-10.06-7.18-23.97-7.23-34.28-.01-2.6-6.97,.09-7.83,.71-11.83,8.47-23.61,19.15-29.66,31.82-.72,.93-1.21,1.7-1.4,2.25-7.14,20.58-.15,31.3-6.55,36.71-5.53,4.69-17.87,5.52-47.6-11.17-8.18,9.16-17.25,22.53-15.03,36.8,.98,6.31,3.99,11.6,7.18,15.94,.73,1.35,1.51,2.66,2.37,3.96,1.08,1.63,2.4,3.27,3.6,4.94,1.19,1.67,2.26,3.38,2.83,5.16-.38,.39-1,.68-1.95,.79-.08-.02-.17-.02-.24-.03-5.08-.62-10.09-1.84-15.03-3.31-.04-.01-.08-.03-.12-.04-.01,0-.03,0-.04-.02t0,0c-4.32-1.48-9.66-3.55-16.24-6.32-.17,1.22-.32,2.63-.39,4.17-.23,.12-.43,.26-.61,.41-.35,.3-.59,.65-.68,1.04-.04,.2-.04,.41,0,.63,.42,2.16,.92,4.28,1.53,6.37,.01,.02,.01,.03,.01,.05,.42,3.54,1.32,7.36,2.98,11.23,6.32,14.74,18.28,17.99,18.22,25.05-.04,5.69-7.92,13.91-46.72,23.8,.97,5.5,3.63,16.15,11.99,26.29,13.29,16.12,31.39,19.41,36.26,20.14-7.38,11.99-14.76,24-22.14,35.99h0c-.27,.29-.54,.58-.81,.87-.56,.6-1.12,1.2-1.68,1.81-.54,.59-.42,1.07-.03,1.42-.94,1.53-1.87,3.04-2.81,4.57,8.38-1.18,18.83-3.5,30.27-7.97l.71,27.87m1138.16-71.07c.07,.5,.11,1,.08,1.53-.05-.47-.07-.99-.08-1.53Z"/>
    <path class="cls-1" d="M2301.66,353.6v-14.93c1.45,.71,2.95,1.4,4.51,2.07,11.67,5.02,22.2,7.09,29.8,7.98-3.64-4.31-6.8-8.27-9.55-11.93,0,0,0,0,0,0-1.56-2.36-3.07-4.75-4.55-7.16-1.71-2.79-3.38-5.61-4.92-8.49-.96-1.79-1.88-3.6-2.75-5.44-.08-.17-.15-.33-.23-.5h0c-.71-10.51,.8-17.01,3.22-21.11v-.02c3.45-1.36,8.03-2.3,13.74-5.05,.57-.27,1.15-.56,1.75-.88,14.24-7.47,22.51-20.02,27.4-30-2.33,.89-12.05,4.45-22.97,3.25h0c-4.15-.92-8.15-2.35-11.91-4.32-1.88-.98-3.71-2.1-5.46-3.36-1.76-1.26-3.45-2.66-5.06-4.2-.7-.67-1.45-1.42-2.21-2.25-.03-.02-.04-.03-.04-.06-1.54-2.34-2.6-5-2.48-7.89,.3-7.44,8.15-9.81,14.8-18.78,4.42-5.96,9.04-15.8,8.54-32.45-25.86,7.79-33.99,8.21-35.75,6.52,0-.02,0-.05,.02-.06,.4-.98,.98-1.92,1.61-2.82,.32-.45,.65-.9,.99-1.33,.34-.44,.68-.87,1.01-1.3,4.11-3.49,10.28-8.54,13.03-16.09,5.02-13.74-3.46-29.79-12.84-42.49-31.68,17.74-44.23,16.22-49.84,11.57-7.83-6.53,.12-17.59-9.9-39.96-2.59-5.75-10.13-22.58-25.06-31.81-.9-.56-1.02,.06-1.01,.98-1.28-.99-2.57-1.96-3.89-2.9-1.81-1.3-8.63-.18-8.48,2.75v.03c.5,7.08,.18,14.26-1.09,21.23-.38,2.07-.88,4.29-1.54,6.52-1.57,5.38-4.1,10.81-8.17,14.29,.24-.83,.47-1.65,.68-2.48,.94-3.75,1.59-7.56,1.97-11.42,1.75-18.22-2.48-37.29-9.33-53.84-1.15-2.78-7.8-.06-8.74,1.83-5.02,10.25-11.51,19.58-18.98,28.2-7,8.06-15.29,14.15-25.99,14.83-5.02-27.37-18.7-52.79-39.54-71.34-1.8-1.6-7.73-.06-8.45,2.27-2.98,9.56-7.76,18.54-14.61,25.9-9.83,10.61-23.21,16.04-37.58,15.8h-.21c-.14,0-.27-.01-.41-.01h-.74c-.11,0-.21,.01-.32,.01-15.14,.32-29.68-5.56-40.3-16.42-7.39-7.58-12.54-17.06-15.67-27.11-.88-2.81-7.26,.09-8.41,1.27-19.14,19.64-33.72,43.4-42.59,69.3-16.77-11.88-31.13-26.99-41.97-44.53-1.23-1.98-1.42-6.97-3.49-5.31-.47,.36-5.06,6.73-5.23,7.14-.14,.35-.29,.68-.42,1.03-.51,1.25-2.2,3.17-2.68,4.46-.03,.09-4.23,11.69-4.26,11.79-4.48,12.13-2.12,13.24-2.36,26.37-.14,6.56,.42,13.09,1.81,19.45-1.81-1.8-3.36-3.89-4.67-6.18-5.76-10.06-7.18-23.97-7.23-34.28-.02-2.6-6.97,.09-7.83,.71-11.83,8.47-23.61,19.15-29.66,31.82-.72,.93-1.21,1.7-1.4,2.25-7.14,20.58-.15,31.3-6.55,36.71-5.53,4.69-17.87,5.52-47.6-11.17-8.18,9.16-4.39,27.04-15.03,36.8-19.77,18.14-28.61,10.95-30.26,9.36,0-.02,0-.05,.02-.06,.4-.98,.98-1.92,1.61-2.82,.32-.45,.66-.9,.99-1.33,.34-.44,.68-.87,1.01-1.3t0,0c4.11-3.49,10.28-8.54,13.03-16.09,5.02-13.74-3.46-29.79-12.84-42.49-31.68,17.74-44.23,16.22-49.84,11.57-7.83-6.53,.12-17.59-9.9-39.96-2.59-5.75-10.13-22.58-25.05-31.81-.9-.56-1.02,.06-1.01,.98-1.28-.99-2.57-1.96-3.89-2.9-1.81-1.3-8.63-.18-8.48,2.75v.03c.5,7.08,.18,14.26-1.09,21.23-.38,2.07-.88,4.29-1.54,6.52-1.57,5.38-4.1,10.81-8.17,14.29,.24-.83,.47-1.65,.68-2.48,.94-3.75,1.59-7.56,1.97-11.42,1.75-18.22-2.48-37.29-9.33-53.84-1.15-2.78-7.8-.06-8.74,1.83-5.02,10.25-11.51,19.58-18.98,28.2-7,8.06-15.29,14.15-25.99,14.83-5.02-27.37-18.7-52.79-39.54-71.34-1.8-1.6-7.73-.06-8.45,2.27-2.98,9.56-7.76,18.54-14.61,25.9-9.83,10.61-23.21,16.04-37.57,15.8h-.21c-.14,0-.27-.02-.41-.02h-.74c-.11,0-.21,.02-.32,.02-15.14,.32-29.68-5.56-40.3-16.42-7.39-7.58-12.53-17.06-15.66-27.11-.88-2.81-7.26,.09-8.41,1.27-19.14,19.64-33.72,43.4-42.6,69.3-16.77-11.89-31.13-26.99-41.97-44.53-1.23-1.98-1.42-6.97-3.49-5.31-.47,.36-5.06,6.73-5.23,7.14-.14,.35-.29,.68-.42,1.03-.51,1.26-2.2,3.17-2.68,4.46-.03,.09-4.23,11.69-4.26,11.79-4.48,12.13-2.12,13.24-2.36,26.37-.14,6.56,.42,13.09,1.81,19.45-1.81-1.8-3.36-3.89-4.67-6.18-5.76-10.06-7.18-23.97-7.23-34.28-.01-2.6-6.97,.09-7.83,.71-11.83,8.47-23.61,19.15-29.66,31.82-.72,.93-1.21,1.7-1.4,2.25-7.14,20.58-.15,31.3-6.55,36.71-5.53,4.69-17.87,5.52-47.6-11.17-8.18,9.16-17.25,22.53-15.03,36.8,.98,6.31,3.99,11.6,7.18,15.94,.73,1.35,1.51,2.66,2.37,3.96,1.08,1.63,2.4,3.27,3.6,4.94,1.19,1.67,2.26,3.38,2.83,5.16-.38,.39-1,.68-1.95,.79-.08-.02-.17-.02-.24-.03-5.08-.62-10.09-1.84-15.03-3.31-.04-.01-.08-.03-.12-.04-.01,0-.03,0-.04-.02t0,0c-4.32-1.48-9.66-3.55-16.24-6.32-.17,1.22-.32,2.63-.39,4.17-.23,.12-.43,.26-.61,.41-.35,.3-.59,.65-.68,1.04-.04,.2-.04,.41,0,.63,.42,2.16,.92,4.28,1.53,6.37,.01,.02,.01,.03,.01,.05,.42,3.54,1.32,7.36,2.98,11.23,6.32,14.74,18.28,17.99,18.22,25.05-.04,5.69-7.92,13.91-46.72,23.8,.97,5.5,3.63,16.15,11.99,26.29,13.29,16.12,31.39,19.41,36.26,20.14-7.38,11.99-14.76,24-22.14,35.99h0c-.27,.29-.54,.58-.81,.87-.56,.6-1.12,1.2-1.68,1.81-.54,.59-.42,1.07-.03,1.42-.94,1.53-1.87,3.04-2.81,4.57,8.38-1.18,18.83-3.5,30.27-7.97l.71,27.87m1138.16-71.07c.07,.5,.11,1,.08,1.53-.05-.47-.07-.99-.08-1.53Z"/>
  </g>
</svg>